<?xml version="1.0" standalone="no"?>
<!DOCTYPE svg PUBLIC "-//W3C//DTD SVG 20010904//EN"
 "http://www.w3.org/TR/2001/REC-SVG-20010904/DTD/svg10.dtd">
<svg version="1.0" xmlns="http://www.w3.org/2000/svg"
 width="374.000000pt" height="374.000000pt" viewBox="0 0 374.000000 374.000000"
 preserveAspectRatio="xMidYMid meet">
<metadata>
Created by potrace 1.11, written by Peter Selinger 2001-2013
</metadata>
<g transform="translate(0.000000,374.000000) scale(0.100000,-0.100000)"
fill="#000000" stroke="none">
<path d="M1525 3650 c6 -10 4 -12 -8 -7 -9 3 -18 1 -21 -6 -3 -8 -5 -8 -5 2
-1 11 -4 11 -16 1 -12 -10 -15 -10 -15 1 0 8 -6 5 -15 -7 -8 -10 -15 -14 -15
-9 0 6 -5 3 -10 -5 -7 -11 -10 -11 -10 -2 0 7 -5 10 -10 7 -6 -4 -7 -11 -4
-17 4 -6 -1 -6 -14 1 -26 14 -35 14 -27 1 6 -10 2 -12 -32 -13 -10 -1 -24 -8
-31 -17 -12 -13 -12 -13 -6 0 7 13 5 13 -9 2 -9 -8 -21 -11 -27 -7 -5 3 -10 1
-10 -6 0 -7 -3 -9 -7 -6 -3 4 -12 -1 -20 -11 -12 -16 -13 -16 -7 3 5 19 5 19
-9 3 -8 -10 -17 -15 -20 -11 -4 3 -9 -2 -13 -11 -3 -9 -11 -13 -17 -9 -6 4 -8
0 -4 -10 3 -9 1 -19 -5 -23 -7 -5 -8 -2 -3 7 8 12 6 12 -9 0 -9 -8 -14 -21
-11 -29 5 -13 3 -13 -12 -1 -10 7 -15 10 -11 5 10 -12 -11 -48 -23 -41 -5 4
-9 -2 -10 -12 0 -10 -3 -13 -5 -6 -6 15 -44 -15 -44 -35 0 -7 -4 -10 -10 -7
-5 3 -11 1 -11 -4 -2 -12 -5 -26 -9 -38 -1 -5 -2 -11 -1 -15 0 -5 -4 -8 -10
-8 -5 0 -7 -4 -4 -10 3 -5 1 -10 -6 -10 -7 0 -9 -3 -6 -7 4 -3 -1 -12 -11 -20
-11 -10 -12 -12 -2 -8 10 4 9 2 -2 -8 -10 -8 -15 -17 -11 -20 3 -4 -2 -7 -12
-7 -10 0 -15 -3 -12 -7 4 -3 -7 -15 -24 -25 -17 -11 -27 -23 -23 -30 4 -7 3
-8 -4 -4 -12 7 -35 -28 -24 -38 3 -4 -2 -4 -12 0 -14 5 -17 4 -12 -4 4 -7 2
-12 -4 -12 -6 0 -9 -4 -5 -9 3 -6 -3 -14 -12 -20 -14 -8 -15 -10 -3 -11 13 0
13 -1 0 -10 -8 -5 -15 -20 -15 -32 -1 -13 -6 -22 -12 -21 -7 2 -15 -6 -18 -17
-4 -11 -10 -20 -15 -20 -4 0 -6 -10 -2 -22 3 -14 2 -19 -6 -14 -7 4 -13 1 -14
-6 0 -7 -2 -17 -2 -23 -1 -5 -5 -16 -9 -22 -5 -7 -5 -19 0 -25 11 -18 13 -39
3 -33 -13 8 -19 -22 -7 -35 9 -10 9 -12 -3 -8 -12 5 -15 -7 -15 -63 -1 -38 3
-65 8 -62 5 3 5 -3 -1 -13 -8 -14 -6 -21 6 -31 15 -12 15 -12 -2 -7 -16 6 -17
4 -7 -14 10 -19 9 -22 -6 -23 -17 0 -17 -1 -1 -7 13 -5 15 -11 8 -22 -12 -19
-13 -33 -2 -26 5 3 9 -1 9 -9 0 -8 -4 -12 -9 -9 -8 5 -12 -10 -9 -35 2 -7 -2
-10 -8 -6 -6 3 -9 0 -5 -8 3 -8 0 -18 -5 -22 -6 -3 -9 -11 -6 -16 4 -5 2 -9
-4 -9 -6 0 -8 -7 -5 -15 4 -8 11 -12 17 -8 6 3 7 1 3 -5 -4 -7 -15 -12 -24
-12 -13 0 -13 -2 4 -15 10 -8 15 -15 9 -14 -22 3 -29 -2 -15 -11 10 -6 11 -10
3 -10 -7 0 -13 -8 -13 -17 0 -9 -10 -28 -22 -41 -13 -14 -16 -22 -8 -18 8 4 4
-1 -9 -12 -15 -12 -22 -25 -18 -35 4 -11 2 -14 -9 -10 -8 3 -14 -1 -14 -10 0
-16 -54 -60 -62 -51 -3 3 -8 -2 -12 -11 -4 -11 -2 -14 7 -10 6 4 4 0 -5 -8
-10 -8 -15 -17 -11 -20 3 -4 1 -7 -7 -7 -10 0 -10 -3 0 -16 11 -12 11 -15 -1
-12 -9 2 -13 -4 -11 -20 2 -13 -1 -21 -9 -20 -6 2 -13 -5 -14 -15 -2 -9 1 -15
6 -11 5 3 6 10 3 16 -5 7 -2 8 6 3 10 -6 9 -12 -6 -24 -10 -9 -21 -27 -22 -41
-2 -14 -8 -26 -13 -28 -14 -5 -12 -439 2 -444 13 -4 18 -138 5 -138 -5 0 2
-10 15 -23 16 -16 28 -20 36 -14 14 10 29 -15 19 -32 -4 -5 -2 -12 3 -16 6 -3
1 -15 -11 -27 -17 -17 -19 -23 -7 -26 21 -7 29 -24 18 -43 -7 -14 -4 -19 10
-24 11 -3 18 -13 17 -23 -2 -9 3 -22 10 -30 8 -8 12 -31 10 -62 -2 -32 0 -48
8 -47 6 1 12 -10 14 -26 2 -15 8 -25 13 -22 9 6 12 -12 11 -78 -1 -22 3 -35 8
-32 9 6 14 -11 13 -42 -1 -7 3 -10 8 -7 5 3 9 0 9 -6 0 -6 5 -8 12 -4 7 4 8 3
4 -5 -12 -19 -14 -61 -4 -61 5 0 7 -4 4 -9 -4 -5 -2 -11 3 -13 5 -1 11 -12 13
-23 1 -11 12 -25 23 -30 12 -7 21 -23 22 -45 2 -18 7 -36 11 -39 15 -10 21
-38 10 -49 -11 -11 45 -35 58 -24 4 4 4 1 -1 -7 -9 -16 -14 -101 -6 -98 8 3
79 -71 74 -77 -3 -2 5 -7 16 -11 12 -3 21 -13 21 -21 0 -8 7 -14 16 -14 8 0
12 -4 9 -10 -3 -5 -1 -10 4 -10 6 0 21 -11 33 -25 11 -13 25 -22 30 -19 5 3 7
0 6 -8 -2 -7 4 -13 12 -13 8 0 21 -4 28 -8 7 -5 12 -3 12 4 0 8 3 9 13 0 8 -6
17 -8 21 -3 4 4 12 -1 17 -11 8 -14 14 -15 31 -6 16 9 19 8 13 -2 -6 -9 -2
-11 13 -7 12 4 20 3 17 -2 -3 -4 2 -11 11 -14 10 -4 13 -2 8 7 -6 9 -5 9 7 0
16 -13 36 -12 58 1 10 6 12 5 7 -2 -4 -7 -2 -12 3 -12 6 0 11 5 11 11 0 8 4 9
13 0 8 -6 17 -8 21 -4 3 4 16 8 27 10 14 2 18 -1 13 -9 -6 -10 -4 -11 7 -1 14
14 33 18 25 5 -2 -4 4 -8 14 -8 15 0 17 3 7 15 -9 11 -4 11 17 -3 18 -11 25
-13 20 -5 -6 12 -5 12 9 0 14 -11 17 -11 17 0 0 9 3 10 8 3 11 -16 47 -23 67
-11 13 7 16 6 11 -2 -9 -14 41 -4 62 12 7 5 15 7 19 4 3 -4 12 1 20 11 8 9 12
11 8 5 -3 -7 -2 -13 3 -13 6 0 13 7 16 16 5 13 9 14 21 4 13 -11 14 -10 10 3
-4 8 -1 18 6 23 8 5 10 3 4 -7 -5 -8 2 -5 15 6 13 11 20 14 16 8 -5 -9 -2 -11
8 -7 9 3 15 9 14 12 -2 20 4 23 19 11 11 -10 14 -10 9 -1 -5 8 0 12 14 12 16
0 20 4 16 16 -5 14 -4 15 9 4 10 -8 15 -9 15 -1 0 6 3 10 8 10 21 -4 32 3 33
19 0 9 3 12 6 5 5 -13 32 -2 61 25 7 6 20 12 28 12 10 0 12 5 8 12 -5 8 0 7
11 -2 17 -13 18 -13 13 1 -5 11 -1 16 10 15 9 0 16 4 15 11 -2 7 6 10 17 8 11
-2 19 -1 17 3 -3 10 40 51 47 44 3 -3 6 0 6 7 0 7 4 10 9 7 5 -3 8 2 7 12 0 9
4 16 10 15 7 -1 20 7 30 19 11 12 13 18 7 14 -7 -4 -13 -2 -13 3 0 6 4 11 10
11 5 0 17 16 26 36 12 26 19 32 25 22 7 -10 9 -9 9 5 0 9 7 17 16 17 9 0 23 8
31 17 14 17 14 17 9 -2 -5 -18 -5 -18 6 -4 7 9 21 15 31 13 9 -1 15 2 12 6 -3
5 -1 11 5 15 5 3 10 1 10 -5 0 -7 7 -5 16 4 8 9 20 14 25 11 5 -4 9 0 9 7 0 9
3 9 10 -2 8 -13 10 -13 10 2 0 11 5 15 15 12 8 -4 15 -1 15 6 0 6 5 8 10 5 6
-3 10 -1 10 6 0 8 5 7 17 -2 11 -10 14 -10 9 -2 -8 14 17 57 27 47 3 -3 3 3 0
15 -4 15 -1 21 11 21 10 0 14 5 11 11 -8 13 23 49 42 49 8 0 11 5 7 11 -4 8 1
9 16 4 15 -5 20 -4 16 4 -4 6 -3 11 1 11 5 0 9 12 9 28 -1 17 4 26 12 24 8 -1
11 2 7 8 -3 5 -1 10 6 10 8 0 8 4 -1 15 -11 13 -8 21 17 48 19 19 29 40 27 52
-2 11 4 25 13 32 9 7 13 20 11 31 -4 13 4 30 21 48 14 15 26 35 26 44 0 12 14
15 78 15 42 0 77 4 77 8 0 5 8 3 17 -4 15 -12 16 -12 8 1 -7 13 -6 13 7 2 14
-11 17 -10 23 7 3 12 12 18 20 15 8 -3 22 1 31 10 9 9 26 14 39 12 15 -3 26 1
29 11 3 8 11 13 18 11 7 -3 25 11 41 29 16 18 40 36 53 39 13 3 24 11 24 16 0
6 7 8 15 4 8 -3 18 2 23 10 5 8 15 16 23 17 8 2 21 7 29 12 15 10 20 11 41 14
6 0 9 8 5 16 -6 17 22 35 42 28 19 -7 52 32 52 61 0 14 5 28 10 31 6 3 10 14
10 25 0 10 7 21 16 24 9 4 14 13 10 21 -3 9 1 18 9 21 8 4 15 17 15 31 0 13 4
21 10 18 15 -9 13 151 -2 167 -16 16 -19 48 -6 48 5 0 6 6 1 13 -12 19 -12 37
-1 37 7 0 6 5 -1 14 -9 11 -9 16 0 21 8 6 7 10 -2 16 -11 7 -11 9 1 9 13 0 13
1 0 10 -13 9 -13 10 0 10 13 0 13 1 0 11 -11 8 -12 12 -3 16 10 3 9 9 -3 20
-13 13 -13 17 -2 24 10 6 8 9 -6 9 -19 0 -19 0 -1 13 14 11 15 16 5 22 -9 6
-11 4 -5 -5 5 -8 4 -11 -3 -6 -6 4 -9 13 -6 21 4 8 10 13 14 10 5 -3 5 9 -1
27 -12 43 -11 51 4 42 9 -6 9 -4 -1 8 -10 13 -10 17 0 21 7 3 4 6 -7 6 -17 1
-17 3 -5 11 12 8 13 13 3 29 -7 11 -9 23 -4 26 12 7 12 75 0 75 -5 0 -8 3 -8
8 3 18 -2 33 -9 28 -10 -6 -9 24 1 41 4 6 1 14 -5 16 -10 4 -9 6 1 6 10 1 11
4 2 15 -9 11 -9 16 0 22 8 5 9 3 4 -6 -5 -9 -4 -11 3 -6 9 5 9 13 1 28 -8 15
-8 19 0 14 15 -9 14 17 -1 32 -9 9 -7 13 6 18 15 6 15 7 -1 20 -10 8 -13 13
-6 14 7 0 10 7 7 15 -4 8 -11 12 -18 8 -6 -3 -3 2 6 13 17 19 17 21 0 38 -9
11 -11 16 -4 12 7 -4 12 -1 12 8 0 8 -6 16 -12 19 -10 3 -10 9 0 27 8 12 9 19
4 16 -13 -8 -30 15 -27 36 2 9 -5 24 -15 33 -11 10 -16 24 -13 33 4 10 2 13
-5 8 -8 -4 -10 -2 -6 7 3 9 -5 22 -18 32 -18 13 -19 16 -4 11 17 -6 17 -5 5
11 -8 10 -18 21 -22 24 -5 3 -9 10 -10 15 -1 5 -6 8 -11 6 -5 -2 -4 4 4 12 8
11 9 16 1 16 -6 0 -11 5 -11 11 0 6 -13 24 -30 39 -16 15 -30 34 -30 42 0 10
-3 9 -10 -2 -9 -13 -10 -13 -11 0 -1 8 0 22 1 29 1 12 -1 12 -13 3 -14 -12
-27 -7 -27 10 0 5 5 6 12 2 7 -4 8 -3 4 5 -4 6 -12 9 -17 6 -5 -4 -9 -1 -9 5
0 6 -4 8 -10 5 -6 -4 -7 1 -3 11 5 13 2 15 -18 9 -15 -4 -19 -3 -11 2 9 7 7
14 -8 31 -12 12 -25 22 -31 22 -6 0 -8 4 -5 9 7 11 -22 23 -36 14 -7 -4 -8 -1
-3 7 6 10 4 12 -9 7 -10 -4 -15 -3 -11 3 8 12 -32 33 -47 24 -7 -5 -9 -2 -5 9
3 9 0 18 -9 21 -9 4 -12 2 -8 -5 4 -7 1 -10 -7 -7 -8 3 -13 11 -11 18 2 7 -5
9 -18 5 -15 -5 -20 -2 -20 12 0 15 -2 16 -10 3 -7 -11 -10 -11 -10 -2 0 8 -5
10 -12 6 -7 -5 -9 -2 -6 8 5 11 0 14 -20 11 -21 -4 -24 -2 -12 6 12 9 10 11
-10 11 -15 0 -32 6 -38 13 -7 6 -18 12 -25 12 -7 1 -11 6 -10 13 2 7 -4 9 -14
5 -11 -4 -14 -3 -9 5 6 11 -5 17 -26 13 -5 0 -8 4 -8 9 0 6 -7 10 -15 10 -8 0
-15 4 -15 8 0 5 -12 14 -26 20 -20 10 -24 10 -19 0 4 -7 1 -6 -7 3 -7 9 -18
14 -25 12 -6 -2 -24 4 -39 14 -16 10 -29 17 -31 16 -2 -2 -4 -3 -5 -2 -23 7
-37 5 -32 -3 4 -6 1 -8 -7 -6 -8 3 -13 11 -11 17 2 9 -3 9 -16 2 -13 -7 -22
-7 -30 1 -9 9 -12 9 -12 1 0 -13 -25 -11 -37 2 -4 4 -2 5 6 0 10 -6 12 -4 7 4
-5 7 -12 9 -19 3 -17 -12 -36 -9 -47 8 -7 10 -10 11 -10 3 0 -7 -5 -13 -11
-13 -5 0 -8 4 -5 9 3 4 -6 6 -19 3 -16 -3 -25 0 -25 9 0 10 -3 10 -12 1 -15
-15 -31 -16 -22 0 5 7 2 9 -8 5 -9 -3 -21 0 -27 6 -8 8 -11 8 -11 -2 0 -7 -5
-9 -10 -6 -6 4 -7 12 -3 18 4 7 -2 5 -12 -3 -10 -8 -16 -10 -12 -4 4 7 0 15
-9 18 -8 3 -12 2 -9 -4 3 -5 -7 -3 -22 5 -21 11 -30 12 -42 2 -11 -9 -13 -9
-8 0 4 6 3 14 -3 18 -5 3 -10 1 -10 -5 0 -6 -5 -8 -10 -5 -6 4 -7 12 -3 18 4
7 0 6 -10 -2 -13 -11 -17 -11 -17 -1 0 8 -3 10 -7 7 -3 -4 -12 -2 -19 4 -8 7
-14 6 -20 -2 -5 -8 -3 -9 6 -4 9 5 11 4 6 -4 -4 -6 -12 -9 -17 -5 -5 3 -6 10
-3 16 5 7 0 9 -14 6 -12 -4 -22 -2 -22 2 0 9 -19 8 -37 -3 -6 -4 -13 -1 -16 5
-3 10 -7 10 -19 0 -10 -7 -19 -9 -22 -4 -7 11 -55 10 -73 -1 -6 -4 -14 -4 -17
1 -3 5 -24 7 -47 5 -24 -2 -49 2 -57 9 -13 11 -14 11 -8 0 6 -9 1 -11 -18 -8
-14 3 -31 8 -37 12 -8 4 -9 3 -5 -5 8 -12 -33 -9 -55 5 -8 5 -9 3 -4 -6z
m1022 -152 c-3 -8 -6 -5 -6 6 -1 11 2 17 5 13 3 -3 4 -12 1 -19z"/>
<path d="M2540 705 c-7 -9 -8 -15 -2 -15 5 0 12 7 16 15 3 8 4 15 2 15 -2 0
-9 -7 -16 -15z"/>
</g>
</svg>
